<svg width="10" height="14" viewBox="0 0 10 14" fill="none" xmlns="http://www.w3.org/2000/svg">
<path fill-rule="evenodd" clip-rule="evenodd" d="M5.00004 13.6667C2.89217 13.6667 0.333374 8.37916 0.333374 5.00001C0.333374 2.42593 2.42596 0.333344 5.00004 0.333344C7.57413 0.333344 9.66671 2.42593 9.66671 5.00001C9.66671 8.37916 7.10791 13.6667 5.00004 13.6667ZM5.00004 12.6667C6.33617 12.6667 8.66671 7.94068 8.66671 5.00001C8.66671 2.97821 7.02184 1.33334 5.00004 1.33334C2.97824 1.33334 1.33337 2.97821 1.33337 5.00001C1.33337 7.94068 3.66391 12.6667 5.00004 12.6667ZM6.33337 5.00001C6.33337 5.73668 5.73671 6.33334 5.00004 6.33334C4.26337 6.33334 3.66671 5.73668 3.66671 5.00001C3.66671 4.26334 4.26337 3.66668 5.00004 3.66668C5.73671 3.66668 6.33337 4.26334 6.33337 5.00001Z" fill="#FFEAC1"/>
</svg>
