<svg width="14" height="14" viewBox="0 0 14 14" fill="none" xmlns="http://www.w3.org/2000/svg">
<path fill-rule="evenodd" clip-rule="evenodd" d="M12.2861 0.517465C12.6208 0.252435 13.1084 0.274525 13.4176 0.583725C13.7506 0.916715 13.7506 1.45661 13.4176 1.7896L8.20647 7.00065L13.4176 12.2118C13.7506 12.5447 13.7506 13.0846 13.4176 13.4176C13.1084 13.7268 12.6208 13.7489 12.2861 13.4839L12.2117 13.4176L7.00065 8.20656L1.78959 13.4176L1.71522 13.4839C1.38053 13.7489 0.892927 13.7268 0.583727 13.4176C0.250737 13.0846 0.250737 12.5447 0.583727 12.2118L5.79479 7.00065L0.583727 1.7896C0.250737 1.45661 0.250737 0.916715 0.583727 0.583725C0.892927 0.274525 1.38053 0.252435 1.71522 0.517465L1.78959 0.583725L7.00065 5.79479L12.2117 0.583725L12.2861 0.517465Z" fill="white"/>
</svg>
